<svg width="100" height="100" fill="none" xmlns="http://www.w3.org/2000/svg"><path d="M66.523 11.333H33.477c-4.401 0-6.601 0-8.592.616a13.792 13.792 0 0 0-4.808 2.625c-1.594 1.341-2.784 3.192-5.164 6.894L4.408 37.81c-1.572 2.446-2.358 3.67-2.572 4.956a6.322 6.322 0 0 0 .362 3.37c.482 1.212 1.51 2.24 3.567 4.296l39.033 39.034c1.821 1.82 2.731 2.731 3.781 3.072.924.3 1.918.3 2.842 0 1.05-.34 1.96-1.251 3.78-3.072l39.035-39.034c2.056-2.056 3.084-3.084 3.566-4.296a6.32 6.32 0 0 0 .362-3.37c-.214-1.287-1-2.51-2.572-4.956L85.087 21.47c-2.38-3.703-3.57-5.554-5.164-6.895a13.792 13.792 0 0 0-4.808-2.625c-1.99-.616-4.191-.616-8.592-.616z" fill="#30A1F5"/><path d="M60.268 24.224c.537-1.45 2.59-1.45 3.126 0l3.71 10.027a2.2 2.2 0 0 0 1.3 1.3l10.027 3.71c1.451.537 1.451 2.59 0 3.126l-10.027 3.71a2.2 2.2 0 0 0-1.3 1.3l-3.71 10.027c-.537 1.451-2.59 1.451-3.126 0l-3.71-10.027a2.2 2.2 0 0 0-1.3-1.3l-10.027-3.71c-1.451-.537-1.451-2.589 0-3.126l10.027-3.71a2.2 2.2 0 0 0 1.3-1.3l3.71-10.027z" fill="#fff"/></svg>